<?xml version="1.0" encoding="utf-8"?>
<!-- Generator: Adobe Illustrator 27.9.0, SVG Export Plug-In . SVG Version: 6.00 Build 0)  -->
<svg version="1.1" id="레이어_1" xmlns="http://www.w3.org/2000/svg" xmlns:xlink="http://www.w3.org/1999/xlink" x="0px"
	 y="0px" viewBox="0 0 842.9 830.2" enable-background="new 0 0 842.9 830.2" xml:space="preserve">
<g>
	<polygon fill-rule="evenodd" clip-rule="evenodd" fill="#262626" points="14,36.2 14.2,34.7 14.3,33.2 14.4,31.7 14.6,30.3 
		15,28.9 15.4,27.4 15.8,26.1 16.4,24.7 17,23.3 17.6,22.1 18.4,20.9 19.1,19.7 19.9,18.5 20.9,17.5 21.7,16.4 22.7,15.3 23.8,14.3 
		24.8,13.4 25.9,12.5 27.1,11.7 28.3,10.9 29.5,10.3 30.8,9.5 32.2,8.9 33.5,8.5 34.8,8 36.2,7.6 37.7,7.3 39.1,7 40.7,6.8 
		42.1,6.7 43.7,6.7 813.4,6.7 815,6.7 816.4,6.8 818,7 819.4,7.3 820.9,7.6 822.2,8 823.6,8.5 824.9,8.9 826.3,9.5 827.5,10.3 
		828.8,10.9 830,11.7 831.1,12.5 832.3,13.4 833.3,14.3 834.3,15.3 835.3,16.4 836.2,17.5 837.1,18.5 837.9,19.7 838.7,20.9 
		839.5,22.1 840.1,23.3 840.7,24.7 841.1,26.1 841.6,27.4 842.1,28.9 842.3,30.3 842.6,31.7 842.8,33.2 842.9,34.7 842.9,36.2 
		842.9,787.4 842.9,789 842.8,790.4 842.6,792 842.3,793.4 842.1,794.9 841.6,796.2 841.1,797.6 840.7,799 840.1,800.3 839.5,801.5 
		838.7,802.8 837.9,804 837.1,805.1 836.2,806.3 835.3,807.4 834.3,808.3 833.3,809.3 832.3,810.2 831.1,811.2 830,811.9 
		828.8,812.8 827.5,813.5 826.3,814.1 824.9,814.7 823.6,815.3 822.2,815.6 820.9,816.1 819.4,816.5 818,816.7 816.4,816.8 815,817 
		813.4,817.1 43.7,817.1 42.1,817 40.7,816.8 39.1,816.7 37.7,816.5 36.2,816.1 34.8,815.6 33.5,815.3 32.2,814.7 30.8,814.1 
		29.5,813.5 28.3,812.8 27.1,811.9 25.9,811.2 24.8,810.2 23.8,809.3 22.7,808.3 21.7,807.4 20.9,806.3 19.9,805.1 19.1,804 
		18.4,802.8 17.6,801.5 17,800.3 16.4,799 15.8,797.6 15.4,796.2 15,794.9 14.6,793.4 14.4,792 14.3,790.4 14.2,789 14,787.4 
		14,36.2 	"/>
</g>
<g>
	<path fill-rule="evenodd" clip-rule="evenodd" fill="#262626" d="M0,812.4l17.8,17.8H9.2L0,821V812.4L0,812.4z M0,774.2l55.6,55.4
		H44L0,785.8V774.2L0,774.2z M0,727.1l103.2,103.1H92.3L0,737.9V727.1L0,727.1z M0,679.9l149.9,149.7h-11.3L0,691.2V679.9L0,679.9z
		 M0,624l206.3,206.1h-12.5L0,636.5V624L0,624z"/>
</g>
<g>
	<polygon fill-rule="evenodd" clip-rule="evenodd" fill="#FFFFFF" points="9.6,30.5 9.6,29 9.7,27.5 10,26.1 10.2,24.5 10.6,23.1 
		10.9,21.8 11.4,20.3 11.9,19 12.5,17.7 13.1,16.5 13.8,15.2 14.6,14 15.5,12.9 16.3,11.7 17.3,10.6 18.2,9.7 19.2,8.7 20.3,7.7 
		21.5,6.9 22.6,6.1 23.8,5.2 25.1,4.5 26.3,3.9 27.6,3.3 28.9,2.8 30.4,2.3 31.8,2 33.2,1.6 34.7,1.4 36.1,1.1 37.7,1 39.1,1 809,1 
		810.4,1 812,1.1 813.4,1.4 814.9,1.6 816.3,2 817.7,2.3 819.1,2.8 820.4,3.3 821.7,3.9 823,4.5 824.2,5.2 825.4,6.1 826.6,6.9 
		827.7,7.7 828.8,8.7 829.9,9.7 830.8,10.6 831.8,11.7 832.6,12.9 833.5,14 834.2,15.2 834.9,16.5 835.5,17.7 836.1,19 836.7,20.3 
		837.2,21.8 837.5,23.1 837.9,24.5 838.1,26.1 838.3,27.5 838.4,29 838.5,30.5 838.5,781.8 838.4,783.2 838.3,784.8 838.1,786.2 
		837.9,787.7 837.5,789.1 837.2,790.6 836.7,792 836.1,793.3 835.5,794.6 834.9,795.8 834.2,797.2 833.5,798.4 832.6,799.4 
		831.8,800.6 830.8,801.7 829.9,802.7 828.8,803.6 827.7,804.6 826.6,805.4 825.4,806.3 824.2,807.1 823,807.8 821.7,808.4 
		820.4,809 819.1,809.5 817.7,810 816.3,810.5 814.9,810.7 813.4,811 812,811.2 810.4,811.3 809,811.3 39.1,811.3 37.7,811.3 
		36.1,811.2 34.7,811 33.2,810.7 31.8,810.5 30.4,810 28.9,809.5 27.6,809 26.3,808.4 25.1,807.8 23.8,807.1 22.6,806.3 21.5,805.4 
		20.3,804.6 19.2,803.6 18.2,802.7 17.3,801.7 16.3,800.6 15.5,799.4 14.6,798.4 13.8,797.2 13.1,795.8 12.5,794.6 11.9,793.3 
		11.4,792 10.9,790.6 10.6,789.1 10.2,787.7 10,786.2 9.7,784.8 9.6,783.2 9.6,781.8 9.6,30.5 	"/>
</g>
<g>
	<path fill="#262626" d="M809,812.3H37.7l-1.6-0.1l-4.6-0.8l-4.2-1.4l-1.4-0.6l-1.2-0.6l-1.4-0.8l-1.2-0.8l-1.1-0.9l-1.3-0.9l-1.1-1
		l-2-2l-1.1-1.2l-0.8-1.2l-0.8-1l-0.9-1.3l-1.3-2.6l-0.6-1.4l-1-2.9l-0.7-3l-0.5-3l-0.1-1.6l0-1.5V29l0.1-1.5l0.5-3.1l0.7-2.9l1-2.8
		l0.6-1.4l0.6-1.2l0.8-1.4l0.8-1.2l0.9-1.1l0.9-1.3l1-1.1l2-2l1.2-1.1l1.2-0.8l1-0.8l1.3-0.9L25.8,3l1.4-0.6l2.9-1l3-0.7l3-0.5
		L37.6,0l1.5,0h771.3l1.6,0.1l3,0.5l3.1,0.8l2.6,1l2.8,1.3l1.2,0.7l2.5,1.7l1.1,0.9l2.2,2l1,1l1.1,1.2l0.8,1.2l0.9,1.1l0.7,1.2
		l0.7,1.4l0.6,1.2l1.3,2.8l0.5,1.4l0.7,2.8l0.3,1.7l0.4,4.5l0,751.3l-0.4,4.5l-0.3,1.5l-0.7,3l-0.5,1.6l-1.8,3.9l-0.7,1.4l-0.8,1.3
		l-0.8,1.1l-0.9,1.3l-1,1.1l-1,1l-2.2,2l-1.1,0.9l-2.4,1.7l-1.4,0.8l-2.6,1.2l-4.3,1.5l-4.3,0.7l-1.6,0.1L809,812.3z M32,809.5
		l4.2,0.7l1.5,0.1l1.4,0h771.3l1.5-0.1l4.2-0.7l4-1.4l2.5-1.1l1.2-0.7l2.3-1.6l1-0.8l2.1-1.9l0.9-0.9l0.9-1l0.8-1.2l0.8-1.1l0.7-1.1
		l1.3-2.5l1.2-2.6l0.5-1.4l0.7-2.8l0.2-1.4l0.3-4.4l0-751.2l-0.4-4.4l-0.2-1.5l-0.7-2.6l-0.4-1.3L834,17l-0.7-1.3l-0.7-1.1l-0.8-1
		l-0.8-1.2l-0.9-1l-0.9-0.9L827,8.5l-1-0.8l-2.4-1.6l-1.1-0.7L820,4.2l-2.5-0.9l-2.8-0.7l-2.8-0.5L810.3,2L809,2H37.7l-1.5,0.1
		l-2.8,0.5l-2.8,0.7l-2.7,0.9l-2.4,1.2l-1.2,0.7l-1.2,0.8l-1,0.8l-1.2,0.8l-1,0.9L18,11.3l-0.9,1l-0.8,1.2l-0.9,1.1l-0.8,1.1
		l-1.3,2.4l-0.6,1.3l-0.9,2.7l-0.7,2.7l-0.5,2.9l-0.1,1.4l0,1.5v752.7l0.1,1.5l0.5,2.8l0.7,2.8l0.9,2.7l1.2,2.4l0.7,1.2l0.8,1.2
		l0.8,1l0.8,1.2l0.9,1l1.9,1.9l1,0.9l1.2,0.8l1.1,0.9l1.1,0.8l2.4,1.3l1.3,0.6L32,809.5z"/>
</g>
<g>
	<polygon fill-rule="evenodd" clip-rule="evenodd" fill="#262626" points="38,58.7 38,56.8 38.2,55 38.4,53.1 38.8,51.3 39.1,49.6 
		39.7,47.8 40.2,46.1 40.9,44.5 41.6,42.9 42.5,41.2 43.3,39.8 44.3,38.2 45.2,36.8 46.3,35.5 47.5,34.1 48.7,32.8 50,31.6 
		51.4,30.4 52.7,29.3 54.1,28.4 55.7,27.4 57.1,26.6 58.8,25.7 60.4,25 62,24.3 63.7,23.8 65.5,23.2 67.2,22.9 69,22.5 70.9,22.3 
		72.7,22.1 74.6,22.1 76.4,22.1 78.4,22.3 80.2,22.5 82,22.9 83.8,23.2 85.4,23.8 87.2,24.3 88.8,25 90.5,25.7 92,26.6 93.6,27.4 
		95,28.4 96.5,29.3 97.9,30.4 99.2,31.6 100.4,32.8 101.8,34.1 102.8,35.5 103.9,36.8 105,38.2 106,39.8 106.8,41.2 107.6,42.9 
		108.4,44.5 109,46.1 109.6,47.8 110,49.6 110.5,51.3 110.8,53.1 111,55 111.1,56.8 111.2,58.7 111.1,60.5 111,62.5 110.8,64.3 
		110.5,66.1 110,67.9 109.6,69.5 109,71.3 108.4,72.9 107.6,74.6 106.8,76.1 106,77.7 105,79.1 103.9,80.6 102.8,82 101.8,83.3 
		100.4,84.5 99.2,85.7 97.9,86.9 96.5,88 95,89.1 93.6,90.1 92,90.9 90.5,91.7 88.8,92.5 87.2,93.1 85.4,93.7 83.8,94.1 82,94.5 
		80.2,94.9 78.4,95.1 76.4,95.2 74.6,95.3 72.7,95.2 70.9,95.1 69,94.9 67.2,94.5 65.5,94.1 63.7,93.7 62,93.1 60.4,92.5 58.8,91.7 
		57.1,90.9 55.7,90.1 54.1,89.1 52.7,88 51.4,86.9 50,85.7 48.7,84.5 47.5,83.3 46.3,82 45.2,80.6 44.3,79.1 43.3,77.7 42.5,76.1 
		41.6,74.6 40.9,72.9 40.2,71.3 39.7,69.5 39.1,67.9 38.8,66.1 38.4,64.3 38.2,62.5 38,60.5 38,58.7 	"/>
</g>
<g>
	<polygon fill-rule="evenodd" clip-rule="evenodd" fill="#FFFFFF" points="66.1,74.8 65.9,74.8 65.5,74.8 65.2,74.7 64.8,74.6 
		64.6,74.5 64.2,74.3 63.8,74.1 63.6,73.9 63.5,73.7 63.4,73.6 63.1,73.3 62.9,73 62.8,72.7 62.5,72.3 62.5,72.1 62.4,71.7 
		62.4,71.2 62.4,71.1 62.4,47.9 62.4,47.7 62.4,47.2 62.5,46.6 62.6,46.3 62.9,45.8 63.1,45.3 63.4,44.9 63.6,44.6 64,44.2 64.3,44 
		64.8,43.6 65.2,43.4 65.6,43.3 66.1,43.1 66.6,43 67.1,42.9 67.3,42.9 81.5,42.9 81.8,42.9 82.3,43 82.8,43.1 83.3,43.3 83.6,43.4 
		84.1,43.6 84.5,44 84.8,44.2 85.2,44.6 85.6,44.9 85.8,45.3 86,45.8 86.2,46.3 86.4,46.6 86.4,47.2 86.5,47.7 86.5,47.9 86.5,64.9 
		86.5,65 86.4,65.3 86.4,65.5 86.2,65.7 86,65.8 85.8,66.1 85.7,66.1 85.4,66.2 85.2,66.2 85.1,66.2 84.8,66.1 84.7,66.1 84.5,65.8 
		84.2,65.7 84.1,65.5 84.1,65.3 84,65 84,64.9 84,47.9 84,47.8 84,47.6 83.9,47.3 83.9,47.1 83.8,46.9 83.6,46.6 83.5,46.4 
		83.4,46.3 83.2,46 83,45.9 82.8,45.8 82.6,45.7 82.3,45.5 82.2,45.5 82,45.4 81.6,45.4 81.5,45.4 67.3,45.4 67.2,45.4 67,45.4 
		66.7,45.5 66.5,45.5 66.2,45.7 66,45.8 65.9,45.9 65.6,46 65.5,46.3 65.4,46.4 65.2,46.6 65,46.9 65,47.1 64.9,47.3 64.9,47.6 
		64.8,47.8 64.8,47.9 64.8,71.1 64.8,71.2 64.9,71.5 65,71.7 65.2,71.8 65.2,71.9 65.3,72.1 65.5,72.2 65.8,72.3 66,72.3 66.1,72.3 
		66.2,72.3 66.5,72.3 66.7,72.2 67,72.1 67,71.9 73.6,65.2 73.7,65.1 73.8,65 74,64.9 74.3,64.9 74.4,64.9 74.5,64.9 74.8,64.9 
		75,65 75.2,65.1 75.4,65.2 81.8,71.9 82,72.1 82.2,72.2 82.3,72.3 82.6,72.3 82.7,72.3 82.8,72.3 83.2,72.3 83.4,72.2 83.5,72.1 
		83.6,71.9 83.8,71.8 83.9,71.7 84,71.5 84,71.2 84,71.1 84,71 84.1,70.7 84.1,70.5 84.2,70.3 84.5,70.1 84.7,70 84.8,69.9 
		85.1,69.8 85.2,69.8 85.4,69.8 85.7,69.9 85.8,70 86,70.1 86.2,70.3 86.4,70.5 86.4,70.7 86.5,71 86.5,71.1 86.5,71.2 86.5,71.6 
		86.4,71.9 86.3,72.3 86.2,72.7 85.9,73 85.8,73.3 85.6,73.6 85.4,73.7 85.3,73.9 85,74.1 84.7,74.3 84.4,74.5 84,74.6 83.6,74.7 
		83.3,74.8 82.9,74.8 82.7,74.8 82.6,74.8 82.1,74.7 81.8,74.7 81.5,74.6 81.1,74.5 80.8,74.2 80.5,74.1 80.3,73.9 80,73.7 
		74.4,67.9 68.8,73.7 68.6,73.9 68.4,74.1 68,74.2 67.8,74.5 67.4,74.6 67.1,74.7 66.7,74.7 66.4,74.8 66.2,74.8 66.1,74.8 
		66.1,74.8 	"/>
</g>
<g>
	<polygon fill-rule="evenodd" clip-rule="evenodd" fill="#262626" points="130,50.9 130,50 130.1,49 130.2,48.1 130.3,47.1 
		130.6,46.3 130.8,45.4 131,44.5 131.4,43.6 131.7,42.9 132.1,42.1 132.6,41.3 133.1,40.5 133.5,39.8 134.1,39.1 134.7,38.5 
		135.3,37.7 135.9,37.1 136.7,36.5 137.4,36.1 138.1,35.6 138.8,35.1 139.5,34.6 140.4,34.1 141.2,33.8 142.1,33.5 142.9,33.2 
		143.7,32.9 144.7,32.7 145.7,32.6 146.5,32.5 147.5,32.3 148.4,32.3 793.9,32.3 794.8,32.3 795.8,32.5 796.7,32.6 797.6,32.7 
		798.5,32.9 799.4,33.2 800.2,33.5 801.1,33.8 801.9,34.1 802.7,34.6 803.5,35.1 804.2,35.6 804.9,36.1 805.6,36.5 806.3,37.1 
		806.9,37.7 807.5,38.5 808.1,39.1 808.7,39.8 809.2,40.5 809.7,41.3 810.2,42.1 810.5,42.9 810.9,43.6 811.3,44.5 811.5,45.4 
		811.7,46.3 812,47.1 812.1,48.1 812.2,49 812.3,50 812.3,50.9 812.3,87.1 812.3,88 812.2,89 812.1,89.9 812,90.8 811.7,91.7 
		811.5,92.6 811.3,93.4 810.9,94.3 810.5,95.1 810.2,95.9 809.7,96.7 809.2,97.4 808.7,98.1 808.1,98.8 807.5,99.5 806.9,100.1 
		806.3,100.7 805.6,101.3 804.9,101.9 804.2,102.4 803.5,102.9 802.7,103.4 801.9,103.7 801.1,104.1 800.2,104.5 799.4,104.7 
		798.5,104.9 797.6,105.2 796.7,105.3 795.8,105.4 794.8,105.5 793.9,105.5 148.4,105.5 147.5,105.5 146.5,105.4 145.7,105.3 
		144.7,105.2 143.7,104.9 142.9,104.7 142.1,104.5 141.2,104.1 140.4,103.7 139.5,103.4 138.8,102.9 138.1,102.4 137.4,101.9 
		136.7,101.3 135.9,100.7 135.3,100.1 134.7,99.5 134.1,98.8 133.5,98.1 133.1,97.4 132.6,96.7 132.1,95.9 131.7,95.1 131.4,94.3 
		131,93.4 130.8,92.6 130.6,91.7 130.3,90.8 130.2,89.9 130.1,89 130,88 130,87.1 130,50.9 	"/>
</g>
<g>
	<polygon fill-rule="evenodd" clip-rule="evenodd" fill="#FFFFFF" points="124.1,40.6 124.1,39.7 124.2,38.7 124.3,37.9 124.4,36.9 
		124.7,36.1 124.9,35.1 125.3,34.3 125.5,33.4 125.9,32.6 126.4,31.9 126.8,31 127.3,30.3 127.8,29.6 128.3,28.9 128.9,28.1 
		129.5,27.5 130.2,26.9 130.8,26.3 131.5,25.9 132.2,25.3 132.9,24.8 133.8,24.4 134.6,23.9 135.3,23.6 136.2,23.2 137,23 138,22.7 
		138.8,22.5 139.8,22.4 140.7,22.3 141.6,22.1 142.5,22.1 788.1,22.1 788.9,22.1 789.9,22.3 790.9,22.4 791.8,22.5 792.7,22.7 
		793.5,23 794.5,23.2 795.3,23.6 796,23.9 796.9,24.4 797.7,24.8 798.4,25.3 799.1,25.9 799.9,26.3 800.5,26.9 801.2,27.5 
		801.8,28.1 802.4,28.9 802.9,29.6 803.3,30.3 803.8,31 804.3,31.9 804.8,32.6 805.1,33.4 805.4,34.3 805.7,35.1 806,36.1 
		806.2,36.9 806.3,37.9 806.5,38.7 806.6,39.7 806.6,40.6 806.6,76.9 806.6,77.7 806.5,78.7 806.3,79.6 806.2,80.6 806,81.4 
		805.7,82.3 805.4,83.2 805.1,84.1 804.8,84.8 804.3,85.6 803.8,86.5 803.3,87.2 802.9,87.9 802.4,88.6 801.8,89.2 801.2,89.9 
		800.5,90.5 799.9,91.1 799.1,91.6 798.4,92.1 797.7,92.6 796.9,93.1 796,93.5 795.3,93.9 794.5,94.1 793.5,94.5 792.7,94.7 
		791.8,95 790.9,95.1 789.9,95.2 788.9,95.3 788.1,95.3 142.5,95.3 141.6,95.3 140.7,95.2 139.8,95.1 138.8,95 138,94.7 137,94.5 
		136.2,94.1 135.3,93.9 134.6,93.5 133.8,93.1 132.9,92.6 132.2,92.1 131.5,91.6 130.8,91.1 130.2,90.5 129.5,89.9 128.9,89.2 
		128.3,88.6 127.8,87.9 127.3,87.2 126.8,86.5 126.4,85.6 125.9,84.8 125.5,84.1 125.3,83.2 124.9,82.3 124.7,81.4 124.4,80.6 
		124.3,79.6 124.2,78.7 124.1,77.7 124.1,76.9 124.1,40.6 	"/>
</g>
<g>
	<path fill="#262626" d="M789,96.4l-647.6,0l-2.9-0.4l-1.9-0.5l-0.8-0.3l-1-0.3l-0.7-0.4l-1.7-1l-2.4-1.6l-0.6-0.6l-0.8-0.7
		l-0.6-0.7l-0.7-0.7L126,87l-1.5-2.7l-0.2-0.8l-0.3-0.9l-0.5-1.9l-0.4-3l0-38.2l0.4-2.9l0.5-1.9l0.3-0.8l0.3-0.9l0.4-1l0.5-0.7
		l0.4-0.8l1.5-2.3l0.6-0.7l0.7-0.7l0.8-0.7l0.7-0.7l0.7-0.4l0.8-0.6l0.9-0.6l0.8-0.3l1.6-0.8l1-0.4l2.8-0.8l2.9-0.4l647.5,0l3,0.4
		l2.8,0.8l1.6,0.7l0.8,0.5l1,0.4l0.8,0.5l0.7,0.6l0.8,0.6l0.6,0.6l0.7,0.5l0.7,0.7l0.7,0.9l1.4,2.2l0.5,0.9l0.5,0.8l0.4,1l0.2,0.8
		l0.4,0.9l0.5,1.9l0.4,2.9l0,38.2l-0.4,3l-0.5,1.7l-0.4,1l-0.3,0.9l-0.4,0.7l-1,1.7l-1.6,2.4l-0.6,0.6l-0.7,0.8l-0.7,0.6l-0.7,0.7
		l-2.2,1.4l-2.7,1.5l-0.8,0.2l-0.9,0.3l-1.9,0.5L789,96.4z M141.7,94.3h647.2l2.7-0.3l1.6-0.5l0.9-0.3l0.8-0.2l0.6-0.3l1.6-0.9
		l2-1.3l0.5-0.5l0.7-0.6l0.5-0.6l0.6-0.6l1.4-2.1l1.2-2.2l0.2-0.7l0.4-1l0.4-1.5l0.3-2.7V39.7l-0.3-2.6l-0.4-1.7l-0.4-0.9l-0.2-0.8
		l-0.3-0.7l-0.4-0.6l-0.5-0.9l-1.4-2.1l-0.6-0.7l-0.5-0.5l-0.7-0.5l-0.6-0.6l-0.7-0.5l-0.7-0.6l-0.6-0.4l-0.9-0.4l-1.5-0.8l-0.7-0.3
		l-2.5-0.7l-2.7-0.3H141.7l-2.6,0.3l-2.5,0.7l-1.4,0.7l-0.9,0.5l-0.8,0.3l-0.6,0.4l-0.8,0.6l-0.6,0.4l-0.5,0.5l-0.8,0.7l-0.5,0.5
		l-0.5,0.6l-1.4,2.1l-0.4,0.8l-0.5,0.7l-0.3,0.7l-0.3,0.9l-0.3,0.8l-0.4,1.7l-0.3,2.6v37.9l0.3,2.7l0.5,1.6l0.3,0.9l0.2,0.8l0.3,0.6
		l0.9,1.6l1.3,2l0.5,0.5l0.6,0.7l0.7,0.5l0.6,0.6l2.1,1.4l2.2,1.2l0.9,0.3l0.8,0.3L139,94L141.7,94.3z"/>
</g>
</svg>
