<?xml version="1.0" encoding="utf-8"?>
<!-- Generator: Adobe Illustrator 27.9.0, SVG Export Plug-In . SVG Version: 6.00 Build 0)  -->
<svg version="1.1" id="레이어_1" xmlns="http://www.w3.org/2000/svg" xmlns:xlink="http://www.w3.org/1999/xlink" x="0px"
	 y="0px" viewBox="0 0 1897.9 1048.4" enable-background="new 0 0 1897.9 1048.4" xml:space="preserve">
<g>
	<polygon fill-rule="evenodd" clip-rule="evenodd" fill="#262626" points="27.1,49.1 27.1,47.2 27.3,45.3 27.6,43.3 27.8,41.7 
		28.3,39.8 28.8,38.1 29.3,36.4 30,34.7 30.7,33 31.7,31.4 32.4,29.9 33.3,28.2 34.5,26.8 35.5,25.4 36.7,24.2 37.9,22.7 39.3,21.5 
		40.5,20.3 42,19.4 43.4,18.2 45.1,17.2 46.5,16.5 48.2,15.5 49.9,14.8 51.6,14.1 53.2,13.6 54.9,13.1 56.8,12.7 58.5,12.4 
		60.4,12.2 62.4,11.9 64.3,11.9 1861,11.9 1862.6,11.9 1864.6,12.2 1866.5,12.4 1868.4,12.7 1870.1,13.1 1872,13.6 1873.7,14.1 
		1875.3,14.8 1877,15.5 1878.5,16.5 1880.1,17.2 1881.6,18.2 1883,19.4 1884.5,20.3 1885.7,21.5 1887.1,22.7 1888.3,24.2 
		1889.5,25.4 1890.5,26.8 1891.7,28.2 1892.6,29.9 1893.3,31.4 1894.3,33 1895,34.7 1895.7,36.4 1896.2,38.1 1896.7,39.8 
		1897.2,41.7 1897.4,43.3 1897.7,45.3 1897.9,47.2 1897.9,49.1 1897.9,991.1 1897.9,993 1897.7,995 1897.4,996.9 1897.2,998.6 
		1896.7,1000.5 1896.2,1002.2 1895.7,1003.8 1895,1005.5 1894.3,1007.2 1893.3,1008.9 1892.6,1010.3 1891.7,1011.7 1890.5,1013.2 
		1889.5,1014.6 1888.3,1016.1 1887.1,1017.3 1885.7,1018.5 1884.5,1019.7 1883,1020.9 1881.6,1021.8 1880.1,1022.8 1878.5,1023.7 
		1877,1024.5 1875.3,1025.2 1873.7,1025.9 1872,1026.6 1870.1,1027.1 1868.4,1027.3 1866.5,1027.8 1864.6,1028.1 1862.6,1028.1 
		1861,1028.3 64.3,1028.3 62.4,1028.1 60.4,1028.1 58.5,1027.8 56.8,1027.3 54.9,1027.1 53.2,1026.6 51.6,1025.9 49.9,1025.2 
		48.2,1024.5 46.5,1023.7 45.1,1022.8 43.4,1021.8 42,1020.9 40.5,1019.7 39.3,1018.5 37.9,1017.3 36.7,1016.1 35.5,1014.6 
		34.5,1013.2 33.3,1011.7 32.4,1010.3 31.7,1008.9 30.7,1007.2 30,1005.5 29.3,1003.8 28.8,1002.2 28.3,1000.5 27.8,998.6 
		27.6,996.9 27.3,995 27.1,993 27.1,991.1 27.1,49.1 	"/>
</g>
<g>
	<path fill-rule="evenodd" clip-rule="evenodd" fill="#262626" d="M0,1012.9l35.5,35.5h-17L0,1030.2V1012.9L0,1012.9z M0,936.7
		l111,110.8H88L0,959.7V936.7L0,936.7z M0,842.4l206.3,206h-21.8L0,864V842.4L0,842.4z M0,748.2l299.6,299.3H277L0,770.7V748.2
		L0,748.2z M0,636.4l412.3,412h-24.9L0,661.4V636.4L0,636.4z"/>
</g>
<g>
	<polygon fill-rule="evenodd" clip-rule="evenodd" fill="#FFFFFF" points="18.2,37.8 18.2,35.9 18.2,34 18.5,32.1 18.9,30.2 
		19.2,28.5 19.7,26.6 20.4,24.9 21.1,23.2 21.8,21.5 22.5,20.1 23.5,18.4 24.5,17 25.4,15.5 26.6,14.1 27.8,12.7 29,11.5 30.2,10.3 
		31.7,9.1 33.1,8.1 34.5,6.9 36,5.9 37.4,5 39.1,4.3 40.8,3.5 42.5,2.8 44.1,2.3 46.1,1.9 47.7,1.4 49.6,1.1 51.3,0.9 53.2,0.7 
		55.2,0.7 1851.8,0.7 1853.8,0.7 1855.7,0.9 1857.6,1.1 1859.3,1.4 1861.2,1.9 1862.9,2.3 1864.6,2.8 1866.2,3.5 1867.9,4.3 
		1869.6,5 1871,5.9 1872.5,6.9 1874.1,8.1 1875.3,9.1 1876.8,10.3 1878,11.5 1879.2,12.7 1880.4,14.1 1881.6,15.5 1882.5,17 
		1883.5,18.4 1884.5,20.1 1885.2,21.5 1885.9,23.2 1886.6,24.9 1887.3,26.6 1887.8,28.5 1888.1,30.2 1888.5,32.1 1888.8,34 
		1888.8,35.9 1889,37.8 1889,979.9 1888.8,981.8 1888.8,983.7 1888.5,985.4 1888.1,987.3 1887.8,989 1887.3,990.9 1886.6,992.6 
		1885.9,994.2 1885.2,995.9 1884.5,997.4 1883.5,999 1882.5,1000.5 1881.6,1001.9 1880.4,1003.4 1879.2,1004.8 1878,1006 
		1876.8,1007.2 1875.3,1008.4 1874.1,1009.6 1872.5,1010.5 1871,1011.5 1869.6,1012.5 1867.9,1013.2 1866.2,1013.9 1864.6,1014.6 
		1862.9,1015.1 1861.2,1015.6 1859.3,1016.1 1857.6,1016.3 1855.7,1016.5 1853.8,1016.8 1851.8,1016.8 55.2,1016.8 53.2,1016.8 
		51.3,1016.5 49.6,1016.3 47.7,1016.1 46.1,1015.6 44.1,1015.1 42.5,1014.6 40.8,1013.9 39.1,1013.2 37.4,1012.5 36,1011.5 
		34.5,1010.5 33.1,1009.6 31.7,1008.4 30.2,1007.2 29,1006 27.8,1004.8 26.6,1003.4 25.4,1001.9 24.5,1000.5 23.5,999 22.5,997.4 
		21.8,995.9 21.1,994.2 20.4,992.6 19.7,990.9 19.2,989 18.9,987.3 18.5,985.4 18.2,983.7 18.2,981.8 18.2,979.9 18.2,37.8 	"/>
</g>
<g>
	<path fill="#262626" d="M1851.8,1017.4H53.2l-5.7-0.7l-1.7-0.5l-1.9-0.5l-1.7-0.5l-5.2-2.2l-4.3-2.9l-2.9-2.4l-2.4-2.4l-2.4-2.9
		l-2-2.9l-1-1.7l-0.7-1.5L19,991l-0.5-1.9l-0.3-1.7l-0.5-1.9l-0.3-1.7l0-3.9V34l0.2-2l0.5-2l0.2-1.6l0.5-2.1l2.2-5l0.7-1.5l1-1.7
		l1.9-2.9l2.4-2.9l2.4-2.4l1.5-1.2l1.5-1l1.4-1.2l3-2l5-2.2L44,1.7l1.9-0.5l1.8-0.5L53.2,0l2,0h1798.6l5.6,0.7l2,0.5l3.4,1l5.2,2.2
		l2.9,1.9l1.7,1.2l2.7,2.2l2.4,2.4l2.4,2.9l2,2.9l1,1.7l0.7,1.5l2.2,5.2l0.5,1.9l0.3,1.7l0.5,1.9l0.3,2l0,2l0.2,1.8l0,942.1l-0.2,2
		l0,1.8l-0.2,1.8l-0.5,2l-0.2,1.6l-0.5,2.1l-2.2,5l-0.7,1.5l-1,1.7l-1.9,2.9l-2.4,2.9l-2.4,2.4l-1.5,1.2l-1.3,1.3l-1.7,1l-2.9,2
		l-5,2.2l-3.4,1l-1.9,0.5l-5.6,0.7L1851.8,1017.4z M47.9,1015.4l5.5,0.7l1.8,0h1798.6l5.4-0.7l1.9-0.5l3.3-1l4.9-2.1l2.8-1.9
		l1.6-0.9l1.1-1.1l1.5-1.2l2.4-2.4l2.4-2.8l1.9-2.8l0.9-1.6l0.7-1.4l2.1-5l0.5-1.9l0.2-1.6l0.5-2l0.2-1.6l0-1.8l0.2-2l0-941.9
		l-0.2-1.8l0-2l-0.2-1.8l-0.5-1.8l-0.3-1.7l-0.5-1.8l-2.1-5l-0.7-1.4l-0.9-1.6l-1.9-2.8l-2.4-2.8l-2.4-2.4l-2.6-2.1l-1.7-1.2
		l-2.8-1.9l-5-2.1l-3.3-0.9l-1.9-0.5l-5.4-0.7l-1.8,0H53.2L47.9,2l-1.6,0.5L44.3,3l-1.7,0.5l-4.9,2.1l-2.8,1.9l-1.4,1.2l-1.5,1
		l-1.4,1.2l-2.4,2.4L25.9,16l-1.9,2.8l-0.9,1.6l-0.7,1.4l-2.1,5l-0.5,1.9l-0.2,1.6l-0.5,2l-0.2,1.8l0,3.8v945.9l0.2,1.6l0.5,1.9
		l0.3,1.7l0.5,1.8l2.1,5l0.7,1.4l0.9,1.6l1.9,2.8l2.4,2.8l2.4,2.4l2.8,2.4l4.2,2.8l5,2.1l1.6,0.5l1.9,0.5L47.9,1015.4z"/>
</g>
<g>
	<polygon fill-rule="evenodd" clip-rule="evenodd" fill="#262626" points="40.5,64.7 40.8,62.5 40.8,60.1 41,58 41.5,55.8 42,53.7 
		42.7,51.7 43.2,49.6 44.1,47.7 44.9,45.7 45.8,43.8 47,41.9 48.2,40.2 49.4,38.3 50.6,36.6 52,35.2 53.5,33.5 54.9,32.1 56.6,30.9 
		58.3,29.4 60,28.2 61.9,27 63.6,26.1 65.5,25.1 67.4,24.2 69.6,23.4 71.5,22.7 73.6,22.2 75.8,21.5 77.9,21.3 80.1,21 82.3,20.8 
		84.7,20.8 86.8,20.8 89,21 91.4,21.3 93.5,21.5 95.5,22.2 97.6,22.7 99.8,23.4 101.7,24.2 103.6,25.1 105.5,26.1 107.5,27 
		109.1,28.2 110.8,29.4 112.5,30.9 114.2,32.1 115.6,33.5 117,35.2 118.5,36.6 119.9,38.3 121.1,40.2 122.1,41.9 123.3,43.8 
		124.2,45.7 125.2,47.7 125.9,49.6 126.6,51.7 127.1,53.7 127.6,55.8 128.1,58 128.3,60.1 128.6,62.5 128.6,64.7 128.6,67.1 
		128.3,69.2 128.1,71.4 127.6,73.6 127.1,75.7 126.6,77.9 125.9,79.8 125.2,81.7 124.2,83.9 123.3,85.8 122.1,87.5 121.1,89.4 
		119.9,91.1 118.5,92.8 117,94.2 115.6,95.9 114.2,97.3 112.5,98.7 110.8,99.9 109.1,101.1 107.5,102.3 105.5,103.3 103.6,104.3 
		101.7,105.2 99.8,105.9 97.6,106.7 95.5,107.4 93.5,107.9 91.4,108.1 89,108.6 86.8,108.6 84.7,108.6 82.3,108.6 80.1,108.6 
		77.9,108.1 75.8,107.9 73.6,107.4 71.5,106.7 69.6,105.9 67.4,105.2 65.5,104.3 63.6,103.3 61.9,102.3 60,101.1 58.3,99.9 
		56.6,98.7 54.9,97.3 53.5,95.9 52,94.2 50.6,92.8 49.4,91.1 48.2,89.4 47,87.5 45.8,85.8 44.9,83.9 44.1,81.7 43.2,79.8 42.7,77.9 
		42,75.7 41.5,73.6 41,71.4 40.8,69.2 40.8,67.1 40.5,64.7 	"/>
</g>
<g>
	<polygon fill-rule="evenodd" clip-rule="evenodd" fill="#FFFFFF" points="74.4,84.1 74.1,84.1 73.6,84.1 73.2,83.9 72.9,83.9 
		72.4,83.6 72,83.4 71.7,83.2 71.2,82.9 71.2,82.7 71,82.7 70.8,82.2 70.5,82 70.3,81.5 70,81 70,80.8 69.8,80.3 69.8,79.8 
		69.8,79.6 69.8,51.7 69.8,51.5 70,50.8 70,50.3 70.3,49.6 70.5,49.1 70.8,48.6 71,48.1 71.5,47.7 71.7,47.4 72.2,46.9 72.7,46.7 
		73.2,46.5 73.9,46.2 74.4,46 74.8,45.7 75.6,45.7 75.8,45.7 92.8,45.7 93.3,45.7 93.8,45.7 94.5,46 95,46.2 95.5,46.5 95.9,46.7 
		96.4,46.9 96.9,47.4 97.4,47.7 97.6,48.1 98.1,48.6 98.3,49.1 98.6,49.6 98.6,50.3 98.8,50.8 98.8,51.5 98.8,51.7 98.8,72.1 
		98.8,72.4 98.8,72.6 98.6,72.8 98.6,73.1 98.3,73.3 98.1,73.6 97.9,73.6 97.6,73.6 97.4,73.6 97.1,73.6 96.9,73.6 96.7,73.6 
		96.4,73.3 96.2,73.1 96.2,72.8 95.9,72.6 95.9,72.4 95.9,72.1 95.9,51.7 95.9,51.5 95.9,51.3 95.7,51 95.7,50.8 95.7,50.5 
		95.5,50.3 95.2,50.1 95.2,49.8 95,49.6 94.7,49.3 94.5,49.1 94.3,49.1 94,48.9 93.5,48.9 93.3,48.9 93.1,48.9 92.8,48.9 75.8,48.9 
		75.8,48.9 75.3,48.9 75.1,48.9 74.8,48.9 74.6,49.1 74.4,49.1 74.1,49.3 73.9,49.6 73.6,49.8 73.4,50.1 73.4,50.3 73.2,50.5 
		73.2,50.8 72.9,51 72.9,51.3 72.9,51.5 72.9,51.7 72.9,79.6 72.9,79.8 72.9,80 72.9,80.3 73.2,80.5 73.2,80.5 73.4,80.8 73.6,81 
		73.9,81 74.4,81 74.4,81 74.6,81 74.8,81 75.1,81 75.3,80.8 75.3,80.8 83.2,72.6 83.5,72.4 83.7,72.4 83.9,72.1 84.2,72.1 
		84.4,72.1 84.4,72.1 84.9,72.1 85.1,72.4 85.4,72.4 85.4,72.6 93.3,80.8 93.5,80.8 93.5,81 94,81 94.3,81 94.3,81 94.5,81 94.7,81 
		95,81 95.5,80.8 95.5,80.5 95.5,80.5 95.7,80.3 95.9,80 95.9,79.8 95.9,79.6 95.9,79.3 95.9,79.1 96.2,78.8 96.2,78.6 96.4,78.4 
		96.7,78.4 96.9,78.1 97.1,78.1 97.4,78.1 97.6,78.1 97.9,78.1 98.1,78.4 98.3,78.4 98.6,78.6 98.6,78.8 98.8,79.1 98.8,79.3 
		98.8,79.6 98.8,79.8 98.8,80.3 98.8,80.8 98.6,81 98.3,81.5 98.3,82 98.1,82.2 97.6,82.7 97.6,82.7 97.4,82.9 97.1,83.2 96.7,83.4 
		96.2,83.6 95.9,83.9 95.5,83.9 95,84.1 94.5,84.1 94.3,84.1 94,84.1 93.5,84.1 93.3,83.9 92.8,83.9 92.3,83.6 92.1,83.4 91.6,83.2 
		91.4,82.9 91.1,82.7 84.4,75.7 77.5,82.7 77.5,82.9 77,83.2 76.8,83.4 76.3,83.6 76,83.9 75.6,83.9 75.1,84.1 74.6,84.1 74.4,84.1 
		74.4,84.1 74.4,84.1 	"/>
</g>
<g>
	<polygon fill-rule="evenodd" clip-rule="evenodd" fill="#262626" points="151.1,55.3 151.1,53.2 151.6,50.8 152.1,48.6 152.8,46.7 
		153.7,44.8 154.9,42.9 156.1,41.2 157.6,39.5 159.3,38.1 160.9,36.9 162.6,35.7 164.5,35 166.7,34 168.9,33.5 171,33.3 173.4,33 
		1846.1,33 1848.2,33.3 1850.4,33.5 1852.6,34 1854.7,35 1856.6,35.7 1858.6,36.9 1860.2,38.1 1861.7,39.5 1863.1,41.2 1864.6,42.9 
		1865.5,44.8 1866.5,46.7 1867.2,48.6 1867.9,50.8 1868.2,53.2 1868.4,55.3 1868.4,98.7 1868.2,101.1 1867.9,103.3 1867.2,105.5 
		1866.5,107.4 1865.5,109.3 1864.6,111.2 1863.1,112.9 1861.7,114.6 1860.2,116 1858.6,117.2 1856.6,118.4 1854.7,119.1 
		1852.6,120.1 1850.4,120.6 1848.2,120.8 1846.1,121.1 173.4,121.1 171,120.8 168.9,120.6 166.7,120.1 164.5,119.1 162.6,118.4 
		160.9,117.2 159.3,116 157.6,114.6 156.1,112.9 154.9,111.2 153.7,109.3 152.8,107.4 152.1,105.5 151.6,103.3 151.1,101.1 
		151.1,98.7 151.1,55.3 	"/>
</g>
<g>
	<polygon fill-rule="evenodd" clip-rule="evenodd" fill="#FFFFFF" points="144.1,43.1 144.1,40.7 144.4,38.6 145.1,36.4 145.8,34.2 
		146.8,32.3 147.7,30.6 149.2,29 150.6,27.3 152.1,25.8 153.7,24.6 155.7,23.4 157.6,22.5 159.7,21.8 161.9,21.3 164.1,20.8 
		166.2,20.8 1839.1,20.8 1841.3,20.8 1843.4,21.3 1845.6,21.8 1847.8,22.5 1849.7,23.4 1851.4,24.6 1853.3,25.8 1854.7,27.3 
		1856.2,29 1857.4,30.6 1858.6,32.3 1859.5,34.2 1860.2,36.4 1860.7,38.6 1861.2,40.7 1861.2,43.1 1861.2,86.5 1861.2,88.7 
		1860.7,90.8 1860.2,93 1859.5,95.1 1858.6,97.1 1857.4,99 1856.2,100.7 1854.7,102.1 1853.3,103.5 1851.4,105 1849.7,105.9 
		1847.8,106.9 1845.6,107.6 1843.4,108.3 1841.3,108.6 1839.1,108.8 166.2,108.8 164.1,108.6 161.9,108.3 159.7,107.6 157.6,106.9 
		155.7,105.9 153.7,105 152.1,103.5 150.6,102.1 149.2,100.7 147.7,99 146.8,97.1 145.8,95.1 145.1,93 144.4,90.8 144.1,88.7 
		144.1,86.5 144.1,43.1 	"/>
</g>
<g>
	<path fill="#262626" d="M166.2,109.5l-4.5-0.5l-4.3-1.4l-4.1-2l-1.7-1.4l-2.9-2.9l-1.6-1.8l-1.9-3.8l-1.5-4.5l-0.2-2.2l0-2.2V40.7
		l0.3-2.4l1.4-4.3l1-2l1-1.8l2.9-3.4l1.6-1.5l1.7-1.2l2-1.2l2-1l2.2-0.8l4.5-1l1677.4,0l4.3,1l2.2,0.7l2.1,1l1.7,1.2l2,1.3l1.4,1.4
		l1.5,1.7l2.5,3.5l1,1.9l0.8,2.2l1,4.5l0,48.1l-1,4.3l-0.7,2.2l-1,2l-1.2,2l-1.3,1.8l-2.9,2.9l-2,1.5l-1.7,1l-2,1l-4.5,1.5l-4.3,0.5
		L166.2,109.5z M162,107.7l4.2,0.5l1672.8,0l4.2-0.5l4.2-1.4l1.8-0.9l1.6-0.9l1.9-1.4l2.8-2.8l1.2-1.6l1.2-1.9l0.9-1.9l0.7-2.1
		l0.9-4.2V40.8l-0.9-4.2l-0.7-2.1l-0.9-1.8l-2.4-3.3l-1.4-1.6l-1.4-1.3l-1.9-1.2l-1.7-1.2l-1.9-0.9l-2.1-0.7l-4.2-0.9H164.1
		l-4.2,0.9l-2.1,0.7L156,24l-1.9,1.2l-1.6,1.1l-1.4,1.4l-2.8,3.3l-0.9,1.6l-0.9,1.9l-1.4,4.2l-0.2,2.1l0,2.3v45.6l0.2,2l1.4,4.3
		l1.8,3.7l1.4,1.6l2.8,2.8l1.6,1.4l3.8,1.9L162,107.7z"/>
</g>
</svg>
