<?xml version="1.0" encoding="utf-8"?>
<!-- Generator: Adobe Illustrator 27.9.0, SVG Export Plug-In . SVG Version: 6.00 Build 0)  -->
<svg version="1.1" id="레이어_1" xmlns="http://www.w3.org/2000/svg" xmlns:xlink="http://www.w3.org/1999/xlink" x="0px"
	 y="0px" viewBox="0 0 758.7 1092.8" enable-background="new 0 0 758.7 1092.8" xml:space="preserve">
<g>
	<polygon fill-rule="evenodd" clip-rule="evenodd" fill="#262626" points="19.4,33 19.4,31.6 19.5,30.4 19.7,29.2 19.9,28 20.1,27 
		20.4,25.8 20.7,24.7 21.3,23.5 21.8,22.5 22.3,21.5 22.8,20.4 23.5,19.6 24.2,18.6 24.9,17.7 26.4,16 28.1,14.4 29,13.8 30,13.1 
		30.9,12.4 31.9,11.9 32.9,11.4 33.9,10.8 35.1,10.3 36.2,10 37.4,9.6 38.4,9.5 39.6,9.3 40.8,9.1 42,9 43.4,9 734.7,9 735.9,9 
		737.3,9.1 738.3,9.3 739.5,9.5 740.7,9.6 741.9,10 743,10.3 744.2,10.8 745.2,11.4 746.2,11.9 747.3,12.4 748.1,13.1 749.1,13.8 
		750,14.4 751.7,16 753.3,17.7 753.9,18.6 754.6,19.6 755.1,20.4 755.8,21.5 756.3,22.5 756.9,23.5 757.2,24.7 757.5,25.8 757.9,27 
		758.2,28 758.4,29.2 758.6,30.4 758.6,31.6 758.7,33 758.7,1046.4 758.6,1047.6 758.6,1048.8 758.4,1050 758.2,1051.2 
		757.9,1052.4 757.5,1053.4 757.2,1054.6 756.9,1055.6 756.3,1056.6 755.8,1057.7 755.1,1058.7 754.6,1059.7 753.9,1060.6 
		753.3,1061.6 751.7,1063.3 750,1064.9 749.1,1065.6 748.1,1066.2 747.3,1066.8 746.2,1067.3 745.2,1068 744.2,1068.3 743,1068.8 
		741.9,1069.2 740.7,1069.5 739.5,1069.7 738.3,1070 737.3,1070.2 735.9,1070.2 734.7,1070.2 43.4,1070.2 42,1070.2 40.8,1070.2 
		39.6,1070 38.4,1069.7 37.4,1069.5 36.2,1069.2 35.1,1068.8 33.9,1068.3 32.9,1068 31.9,1067.3 30.9,1066.8 30,1066.2 29,1065.6 
		28.1,1064.9 26.4,1063.3 24.9,1061.6 24.2,1060.6 23.5,1059.7 22.8,1058.7 22.3,1057.7 21.8,1056.6 21.3,1055.6 20.7,1054.6 
		20.4,1053.4 20.1,1052.4 19.9,1051.2 19.7,1050 19.5,1048.8 19.4,1047.6 19.4,1046.4 19.4,33 	"/>
</g>
<g>
	<path fill-rule="evenodd" clip-rule="evenodd" fill="#262626" d="M0,1067.4l25.4,25.4H13.2l-13.2-13V1067.4L0,1067.4z M0,1012.9
		l79.4,79.2H62.9L0,1029.4V1012.9L0,1012.9z M0,945.5l147.4,147.3h-15.6L0,961V945.5L0,945.5z M0,878.2l214.1,214H198L0,894.3V878.2
		L0,878.2z M0,798.3l294.7,294.5h-17.8L0,816.1V798.3L0,798.3z"/>
</g>
<g>
	<polygon fill-rule="evenodd" clip-rule="evenodd" fill="#FFFFFF" points="13,23.2 13,22.2 13,21 13.2,19.8 13.4,18.7 13.7,17.7 
		13.9,16.5 14.2,15.5 14.7,14.6 15.1,13.6 15.6,12.6 16.1,11.7 16.8,10.7 18,9 19.5,7.4 21.1,6 22.8,4.7 23.7,4.2 24.7,3.6 
		25.5,3.1 26.6,2.6 27.6,2.3 28.6,1.9 29.7,1.6 30.9,1.2 31.9,1.1 33.1,0.9 34.1,0.9 35.3,0.9 729.9,0.9 731,0.9 732.2,0.9 
		733.2,1.1 734.4,1.2 735.4,1.6 736.5,1.9 737.5,2.3 738.5,2.6 739.5,3.1 740.6,3.6 741.4,4.2 742.5,4.7 744.2,6 745.7,7.4 747.1,9 
		748.5,10.7 749,11.7 749.5,12.6 750,13.6 750.5,14.6 750.9,15.5 751.2,16.5 751.5,17.7 751.7,18.7 752.1,19.8 752.1,21 752.2,22.2 
		752.2,23.2 752.2,1039.5 752.2,1040.7 752.1,1041.9 752.1,1042.9 751.7,1044.1 751.5,1045.2 751.2,1046.2 750.9,1047.2 
		750.5,1048.2 750,1049.3 749.5,1050.3 749,1051.2 748.5,1052 747.1,1053.7 745.7,1055.4 744.2,1056.8 742.5,1058.2 741.4,1058.7 
		740.6,1059.2 739.5,1059.7 738.5,1060.2 737.5,1060.6 736.5,1060.9 735.4,1061.3 734.4,1061.4 733.2,1061.6 732.2,1061.8 731,1062 
		729.9,1062 35.3,1062 34.1,1062 33.1,1061.8 31.9,1061.6 30.9,1061.4 29.7,1061.3 28.6,1060.9 27.6,1060.6 26.6,1060.2 
		25.5,1059.7 24.7,1059.2 23.7,1058.7 22.8,1058.2 21.1,1056.8 19.5,1055.4 18,1053.7 16.8,1052 16.1,1051.2 15.6,1050.3 
		15.1,1049.3 14.7,1048.2 14.2,1047.2 13.9,1046.2 13.7,1045.2 13.4,1044.1 13.2,1042.9 13,1041.9 13,1040.7 13,1039.5 13,23.2 	"/>
</g>
<g>
	<path fill="#262626" d="M731,1062.9l-697.1,0l-4.6-0.7l-3.2-1.1l-1-0.5l-0.9-0.5l-1-0.5l-1-0.6l-1.7-1.4l-1.6-1.5l-1.6-1.8
		l-1.2-1.7l-0.7-0.9l-0.5-0.9l-0.6-1.2l-0.3-1l-0.5-1.1l-0.4-1.2l-0.2-1l-0.4-1.1l-0.4-2.4l0-1021.1l0.4-2.4l0.3-1l0.2-1.3l0.4-1.2
		l0.5-0.8l0.4-1.1l0.5-1l0.5-0.9l2-2.9l1.5-1.5l1.6-1.4l1.8-1.5l0.9-0.5l1.1-0.5l0.8-0.5l1.2-0.6l3.1-1l1.3-0.4L33.1,0l699.2,0
		l2.4,0.4l4.2,1.4l2.1,1l0.9,0.5L743,4l1.7,1.4l1.7,1.5l1.4,1.5l1.5,1.9l0.5,1l0.5,0.8l1.1,2.1l0.4,0.9l0.4,1.1l0.4,1.3l0.2,1
		l0.4,1.2v1.1l0.2,1.3l0,1018.7l-0.2,1.1l0,1.2l-0.3,1.2l-0.2,1.1l-1.1,3.2l-1,2.1l-1.1,1.9l-2.8,3.5l-1.5,1.4l-1.9,1.5l-1,0.5
		l-0.8,0.5l-2.2,1.1l-3.2,1.1L731,1062.9z M34.2,1061.1h696.7l4.3-0.7l3-1l2-1l0.8-0.5l1-0.5l1.6-1.3l1.5-1.3l2.7-3.3l1-1.7l1-1.9
		l1-3l0.2-1.1l0.3-1.1l0-1l0.2-1.1V22.2l-0.2-1.3v-1.1l-0.3-1l-0.2-1l-0.7-2.1l-0.3-0.8l-1-2l-0.5-0.8l-0.5-1l-1.3-1.6l-1.3-1.5
		l-1.5-1.3L742,5.4L741,5l-0.9-0.5l-1.9-1l-4-1.3l-2.1-0.3h-699l-2.1,0.3l-4.1,1.3l-1,0.5l-0.8,0.5L24.1,5l-0.7,0.4l-1.7,1.3
		l-1.5,1.3l-1.4,1.5l-1.8,2.7L16.4,13l-0.5,0.9l-0.4,1.1l-0.5,0.8l-0.3,0.9L14.6,18l-0.3,1L13.9,21v1020.8l0.3,2.1l0.4,1.1l0.2,1
		l0.3,0.9l0.5,1.1l0.3,1l0.5,1l0.4,0.7l0.6,0.8l1.2,1.7l1.5,1.6l1.5,1.3l1.6,1.3l0.8,0.5l1,0.5l0.9,0.5l0.9,0.5l2.9,1L34.2,1061.1z"
		/>
</g>
<g>
	<polygon fill-rule="evenodd" clip-rule="evenodd" fill="#262626" points="41.7,60.4 41.8,58.5 41.8,56.4 42.2,54.6 42.5,52.5 
		42.9,50.6 43.5,48.9 44.1,47 44.7,45.3 45.6,43.6 46.5,41.9 47.3,40.2 48.3,38.6 49.5,37.1 50.6,35.5 51.8,34.2 53.1,32.8 
		54.5,31.6 55.9,30.4 57.4,29.2 59,28 60.5,27.1 62.1,26.1 63.8,25.2 65.5,24.4 67.4,23.7 69.1,23.2 71,22.7 72.9,22.2 74.7,21.8 
		76.8,21.6 78.7,21.5 80.7,21.5 82.8,21.5 84.7,21.6 86.7,21.8 88.6,22.2 90.5,22.7 92.4,23.2 94.1,23.7 96,24.4 97.7,25.2 
		99.3,26.1 101,27.1 102.5,28 104.1,29.2 105.6,30.4 107,31.6 108.3,32.8 109.5,34.2 110.9,35.5 111.9,37.1 113.1,38.6 114.2,40.2 
		115,41.9 115.9,43.6 116.7,45.3 117.4,47 117.9,48.9 118.5,50.6 119,52.5 119.3,54.6 119.5,56.4 119.7,58.5 119.8,60.4 119.7,62.4 
		119.5,64.5 119.3,66.4 119,68.3 118.5,70.2 117.9,72 117.4,73.9 116.7,75.6 115.9,77.4 115,79.1 114.2,80.6 113.1,82.3 111.9,83.7 
		110.9,85.2 109.5,86.6 108.3,88 107,89.4 105.6,90.6 104.1,91.8 102.5,92.8 101,93.8 99.3,94.7 97.7,95.5 96,96.4 94.1,97.1 
		92.4,97.8 90.5,98.3 88.6,98.6 86.7,99 84.7,99.3 82.8,99.5 80.7,99.5 78.7,99.5 76.8,99.3 74.7,99 72.9,98.6 71,98.3 69.1,97.8 
		67.4,97.1 65.5,96.4 63.8,95.5 62.1,94.7 60.5,93.8 59,92.8 57.4,91.8 55.9,90.6 54.5,89.4 53.1,88 51.8,86.6 50.6,85.2 49.5,83.7 
		48.3,82.3 47.3,80.6 46.5,79.1 45.6,77.4 44.7,75.6 44.1,73.9 43.5,72 42.9,70.2 42.5,68.3 42.2,66.4 41.8,64.5 41.8,62.4 
		41.7,60.4 	"/>
</g>
<g>
	<polygon fill-rule="evenodd" clip-rule="evenodd" fill="#FFFFFF" points="71.7,77.5 71.5,77.5 71.1,77.5 70.6,77.5 70.3,77.4 
		69.9,77.2 69.6,77 69.3,76.8 68.9,76.5 68.7,76.5 68.7,76.3 68.4,76 68.2,75.6 68.1,75.3 67.9,75 67.7,74.6 67.7,74.3 67.7,73.8 
		67.7,73.6 67.7,48.9 67.7,48.7 67.7,48 67.9,47.5 68.1,47 68.2,46.7 68.4,46.2 68.7,45.8 69.1,45.3 69.4,45 69.8,44.6 70.3,44.4 
		70.6,44.1 71.1,43.9 71.7,43.8 72.2,43.8 72.7,43.6 73,43.6 88.1,43.6 88.5,43.6 89,43.8 89.5,43.8 90,43.9 90.3,44.1 90.9,44.4 
		91.2,44.6 91.7,45 92.1,45.3 92.4,45.8 92.6,46.2 92.9,46.7 93.1,47 93.3,47.5 93.4,48 93.4,48.7 93.4,48.9 93.4,67.1 93.4,67.2 
		93.4,67.4 93.3,67.8 93.1,67.9 92.9,68.1 92.7,68.3 92.4,68.3 92.2,68.4 92.1,68.4 91.9,68.4 91.7,68.3 91.4,68.3 91.2,68.1 
		91,67.9 90.9,67.8 90.9,67.4 90.7,67.2 90.7,67.1 90.7,48.9 90.7,48.7 90.7,48.6 90.7,48.2 90.7,48 90.5,47.7 90.3,47.5 90.2,47.4 
		90,47.2 89.8,47 89.7,46.8 89.5,46.7 89.3,46.5 89,46.5 88.8,46.3 88.5,46.3 88.3,46.3 88.1,46.3 73,46.3 72.9,46.3 72.5,46.3 
		72.3,46.3 72,46.5 71.8,46.5 71.7,46.7 71.3,46.8 71.1,47 71,47.2 70.8,47.4 70.6,47.5 70.6,47.7 70.5,48 70.5,48.2 70.3,48.6 
		70.3,48.7 70.3,48.9 70.3,73.6 70.3,73.8 70.3,74.1 70.5,74.3 70.6,74.4 70.6,74.6 70.8,74.6 71,74.8 71.3,75 71.5,75 71.7,75 
		71.8,75 72,75 72.3,74.8 72.5,74.6 72.5,74.6 79.5,67.4 79.7,67.2 79.9,67.1 80.2,67.1 80.4,66.9 80.6,66.9 80.7,66.9 80.9,67.1 
		81.3,67.1 81.4,67.2 81.4,67.4 88.5,74.6 88.6,74.6 88.8,74.8 89,75 89.3,75 89.3,75 89.5,75 89.8,75 90,74.8 90.3,74.6 90.3,74.6 
		90.5,74.4 90.7,74.3 90.7,73.9 90.7,73.8 90.7,73.6 90.7,73.4 90.9,73.2 90.9,72.9 91,72.7 91.2,72.6 91.4,72.4 91.7,72.4 
		91.9,72.2 92.1,72.2 92.2,72.2 92.4,72.4 92.7,72.4 92.9,72.6 93.1,72.7 93.3,72.9 93.4,73.2 93.4,73.4 93.4,73.6 93.4,73.8 
		93.4,74.3 93.3,74.6 93.3,75 93.1,75.3 92.9,75.6 92.6,76 92.4,76.3 92.2,76.5 92.1,76.5 91.7,76.8 91.4,77 91,77.2 90.7,77.4 
		90.3,77.5 90,77.5 89.5,77.5 89.3,77.5 89.1,77.5 88.8,77.5 88.5,77.5 87.9,77.4 87.6,77.2 87.3,77 87.1,76.8 86.7,76.5 86.6,76.3 
		80.6,70.2 74.6,76.3 74.4,76.5 74.1,76.8 73.7,77 73.4,77.2 73,77.4 72.7,77.5 72.3,77.5 72,77.5 71.7,77.5 71.7,77.5 71.7,77.5 	
		"/>
</g>
<g>
	<polygon fill-rule="evenodd" clip-rule="evenodd" fill="#262626" points="139.7,43.4 139.9,42.2 140.1,41.2 140.2,40.2 140.6,39.1 
		141.1,38.1 141.6,37.2 142.3,36.4 143,35.5 143.7,34.8 144.5,34.2 145.5,33.6 146.4,33.3 147.4,32.8 148.5,32.6 149.7,32.4 
		150.7,32.4 711.9,32.4 713,32.4 714,32.6 715.2,32.8 716.2,33.3 717.1,33.6 717.9,34.2 718.8,34.8 719.7,35.5 720.3,36.4 721,37.2 
		721.5,38.1 722.1,39.1 722.4,40.2 722.6,41.2 722.7,42.2 722.9,43.4 722.9,98.3 722.7,99.5 722.6,100.5 722.4,101.5 722.1,102.6 
		721.5,103.6 721,104.5 720.3,105.3 719.7,106 718.8,106.9 717.9,107.4 717.1,108.1 716.2,108.4 715.2,108.7 714,109.1 713,109.3 
		711.9,109.3 150.7,109.3 149.7,109.3 148.5,109.1 147.4,108.7 146.4,108.4 145.5,108.1 144.5,107.4 143.7,106.9 143,106 
		142.3,105.3 141.6,104.5 141.1,103.6 140.6,102.6 140.2,101.5 140.1,100.5 139.9,99.5 139.7,98.3 139.7,43.4 	"/>
</g>
<g>
	<polygon fill-rule="evenodd" clip-rule="evenodd" fill="#FFFFFF" points="133.5,30.4 133.5,29.5 133.7,28.7 133.9,27.8 134.2,27 
		134.6,26.1 135.1,25.4 135.6,24.7 136.1,24 136.8,23.5 137.5,23 138.2,22.5 139,22.2 139.9,21.8 140.7,21.6 141.6,21.5 142.6,21.5 
		705.6,21.5 706.6,21.5 707.5,21.6 708.3,21.8 709.2,22.2 709.9,22.5 710.7,23 711.4,23.5 712.1,24 712.6,24.7 713.1,25.4 
		713.7,26.1 714,27 714.3,27.8 714.5,28.7 714.7,29.5 714.7,30.4 714.7,90.6 714.7,91.4 714.5,92.3 714.3,93.1 714,94 713.7,94.9 
		713.1,95.5 712.6,96.2 712.1,96.9 711.4,97.4 710.7,97.9 709.9,98.5 709.2,98.8 708.3,99.1 707.5,99.3 706.6,99.5 705.6,99.5 
		142.6,99.5 141.6,99.5 140.7,99.3 139.9,99.1 139,98.8 138.2,98.5 137.5,97.9 136.8,97.4 136.1,96.9 135.6,96.2 135.1,95.5 
		134.6,94.9 134.2,94 133.9,93.1 133.7,92.3 133.5,91.4 133.5,90.6 133.5,30.4 	"/>
</g>
<g>
	<path fill="#262626" d="M706.7,100.4l-565.3,0l-1.9-0.4l-1.9-0.8l-2.2-1.7l-1.7-2.3l-0.7-1.9l-0.4-1.9l0-62.1l0.4-1.9l0.8-1.9
		l1.7-2.2l2.3-1.7l1.9-0.7l1.9-0.4l565.2,0l1.9,0.4l0.9,0.3l0.8,0.4l0.9,0.5l1.6,1.3l1.7,2.3l0.7,1.9l0.4,1.9l0,62.1l-0.4,1.9
		l-0.8,1.9l-1.7,2.2l-1.4,1l-0.9,0.6l-0.7,0.4l-1.1,0.4L706.7,100.4z M141.7,98.6h564.9l1.5-0.3l0.8-0.3l0.6-0.3l0.8-0.5l1.2-0.9
		l1.4-1.9l0.6-1.5l0.3-1.5V29.6l-0.3-1.5l-0.6-1.5l-1.4-1.9l-1.3-1l-0.8-0.5l-0.6-0.3l-0.7-0.3l-1.5-0.3H141.7l-1.5,0.3l-1.5,0.6
		l-1.9,1.4l-1.4,1.9l-0.6,1.5l-0.3,1.5v61.7l0.3,1.5l0.6,1.5l1.4,1.9l1.9,1.4l1.5,0.6L141.7,98.6z"/>
</g>
</svg>
